<?xml version="1.0" encoding="UTF-8" standalone="no"?><svg xmlns="http://www.w3.org/2000/svg" xmlns:xlink="http://www.w3.org/1999/xlink" contentScriptType="application/ecmascript" contentStyleType="text/css" height="617px" preserveAspectRatio="none" style="width:469px;height:617px;" version="1.1" viewBox="0 0 469 617" width="469px" zoomAndPan="magnify"><defs><filter height="300%" id="f177cxap4rmjp3" width="300%" x="-1" y="-1"><feGaussianBlur result="blurOut" stdDeviation="2.0"/><feColorMatrix in="blurOut" result="blurOut2" type="matrix" values="0 0 0 0 0 0 0 0 0 0 0 0 0 0 0 0 0 0 .4 0"/><feOffset dx="4.0" dy="4.0" in="blurOut2" result="blurOut3"/><feBlend in="SourceGraphic" in2="blurOut3" mode="normal"/></filter></defs><g><!--MD5=[bf142c93e294de64ba0f3f4232bfc935]
class Wine--><rect codeLine="2" fill="#87CEFA" filter="url(#f177cxap4rmjp3)" height="200.1953" id="Wine" style="stroke: #A80036; stroke-width: 1.5;" width="113" x="172.5" y="233"/><ellipse cx="211.35" cy="249" fill="#ADD1B2" rx="11" ry="11" style="stroke: #A80036; stroke-width: 1.0;"/><path d="M214.1156,244.875 Q214.2719,244.6563 214.4594,244.5469 Q214.6469,244.4375 214.8656,244.4375 Q215.2406,244.4375 215.475,244.7031 Q215.7094,244.9531 215.7094,245.5625 L215.7094,247.0156 Q215.7094,247.625 215.475,247.8906 Q215.2406,248.1563 214.8656,248.1563 Q214.5219,248.1563 214.3188,247.9531 Q214.1156,247.7656 214.0063,247.25 Q213.9594,246.8906 213.7719,246.7031 Q213.4438,246.3281 212.8344,246.1094 Q212.225,245.8906 211.6,245.8906 Q210.8344,245.8906 210.1938,246.2188 Q209.5688,246.5469 209.0688,247.2969 Q208.5844,248.0469 208.5844,249.0781 L208.5844,250.1719 Q208.5844,251.4063 209.475,252.2344 Q210.3656,253.0469 211.9594,253.0469 Q212.8969,253.0469 213.5531,252.7969 Q213.9438,252.6406 214.3656,252.2031 Q214.6313,251.9375 214.7719,251.8594 Q214.9281,251.7813 215.1313,251.7813 Q215.4594,251.7813 215.7094,252.0469 Q215.975,252.2969 215.975,252.6406 Q215.975,252.9844 215.6313,253.3906 Q215.1313,253.9688 214.3344,254.2969 Q213.2563,254.75 211.9594,254.75 Q210.4438,254.75 209.2406,254.125 Q208.2563,253.625 207.5688,252.5625 Q206.8813,251.4844 206.8813,250.2031 L206.8813,249.0469 Q206.8813,247.7188 207.4906,246.5781 Q208.1156,245.4219 209.2094,244.8125 Q210.3031,244.1875 211.5375,244.1875 Q212.2719,244.1875 212.9125,244.3594 Q213.5688,244.5156 214.1156,244.875 Z "/><text fill="#000000" font-family="sans-serif" font-size="12" lengthAdjust="spacingAndGlyphs" textLength="28" x="230.65" y="253.9102">Wine</text><line style="stroke: #A80036; stroke-width: 1.5;" x1="173.5" x2="284.5" y1="265" y2="265"/><ellipse cx="183.5" cy="276" fill="none" rx="3" ry="3" style="stroke: #038048; stroke-width: 1.0;"/><text fill="#000000" font-family="sans-serif" font-size="11" lengthAdjust="spacingAndGlyphs" textLength="51" x="192.5" y="280.4189">id: Number</text><ellipse cx="183.5" cy="289.8359" fill="none" rx="3" ry="3" style="stroke: #038048; stroke-width: 1.0;"/><text fill="#000000" font-family="sans-serif" font-size="11" lengthAdjust="spacingAndGlyphs" textLength="60" x="192.5" y="294.2549">name: String</text><ellipse cx="183.5" cy="303.6719" fill="none" rx="3" ry="3" style="stroke: #038048; stroke-width: 1.0;"/><text fill="#000000" font-family="sans-serif" font-size="11" lengthAdjust="spacingAndGlyphs" textLength="80" x="192.5" y="308.0908">description: Text</text><ellipse cx="183.5" cy="317.5078" fill="none" rx="3" ry="3" style="stroke: #038048; stroke-width: 1.0;"/><text fill="#000000" font-family="sans-serif" font-size="11" lengthAdjust="spacingAndGlyphs" textLength="85" x="192.5" y="321.9268">color: WineColors</text><ellipse cx="183.5" cy="331.3438" fill="none" rx="3" ry="3" style="stroke: #038048; stroke-width: 1.0;"/><text fill="#000000" font-family="sans-serif" font-size="11" lengthAdjust="spacingAndGlyphs" textLength="67" x="192.5" y="335.7627">vintage: Short</text><ellipse cx="183.5" cy="345.1797" fill="none" rx="3" ry="3" style="stroke: #038048; stroke-width: 1.0;"/><text fill="#000000" font-family="sans-serif" font-size="11" lengthAdjust="spacingAndGlyphs" textLength="87" x="192.5" y="349.5986">wineMaker: String</text><ellipse cx="183.5" cy="359.0156" fill="none" rx="3" ry="3" style="stroke: #038048; stroke-width: 1.0;"/><text fill="#000000" font-family="sans-serif" font-size="11" lengthAdjust="spacingAndGlyphs" textLength="71" x="192.5" y="363.4346">country: String</text><ellipse cx="183.5" cy="372.8516" fill="none" rx="3" ry="3" style="stroke: #038048; stroke-width: 1.0;"/><text fill="#000000" font-family="sans-serif" font-size="11" lengthAdjust="spacingAndGlyphs" textLength="64" x="192.5" y="377.2705">region: String</text><ellipse cx="183.5" cy="386.6875" fill="none" rx="3" ry="3" style="stroke: #038048; stroke-width: 1.0;"/><text fill="#000000" font-family="sans-serif" font-size="11" lengthAdjust="spacingAndGlyphs" textLength="85" x="192.5" y="391.1064">appellation: String</text><ellipse cx="183.5" cy="400.5234" fill="none" rx="3" ry="3" style="stroke: #038048; stroke-width: 1.0;"/><text fill="#000000" font-family="sans-serif" font-size="11" lengthAdjust="spacingAndGlyphs" textLength="63" x="192.5" y="404.9424">price: Double</text><ellipse cx="183.5" cy="414.3594" fill="none" rx="3" ry="3" style="stroke: #038048; stroke-width: 1.0;"/><text fill="#000000" font-family="sans-serif" font-size="11" lengthAdjust="spacingAndGlyphs" textLength="56" x="192.5" y="418.7783">label: Image</text><line style="stroke: #A80036; stroke-width: 1.5;" x1="173.5" x2="284.5" y1="425.1953" y2="425.1953"/><!--MD5=[f9d4c81b92c87e40026442e99891ca49]
class WineColors--><rect codeLine="58" fill="#FEFECE" filter="url(#f177cxap4rmjp3)" height="103.3438" id="WineColors" style="stroke: #A80036; stroke-width: 1.5;" width="97" x="180.5" y="500"/><ellipse cx="195.5" cy="516" fill="#EB937F" rx="11" ry="11" style="stroke: #A80036; stroke-width: 1.0;"/><path d="M194.3594,516.7969 L194.3594,519.2969 L198.6875,519.2969 L198.6875,518.375 Q198.6875,517.7656 198.9219,517.5 Q199.1719,517.2344 199.5469,517.2344 Q199.9219,517.2344 200.1563,517.5 Q200.3906,517.7656 200.3906,518.375 L200.3906,521 L192.3906,521 Q191.7656,521 191.5,520.7656 Q191.25,520.5313 191.25,520.1406 Q191.25,519.7656 191.5156,519.5313 Q191.7813,519.2969 192.3906,519.2969 L192.6563,519.2969 L192.6563,512.6406 L192.3906,512.6406 Q191.7656,512.6406 191.5,512.4063 Q191.25,512.1719 191.25,511.7813 Q191.25,511.4063 191.5,511.1719 Q191.7656,510.9375 192.3906,510.9375 L200.0156,510.9375 L200.0156,513.5313 Q200.0156,514.1406 199.7813,514.4063 Q199.5625,514.6563 199.1719,514.6563 Q198.7969,514.6563 198.5625,514.4063 Q198.3281,514.1406 198.3281,513.5313 L198.3281,512.6406 L194.3594,512.6406 L194.3594,515.0938 L195.8438,515.0938 Q195.8438,514.4375 195.9688,514.25 Q196.2344,513.8438 196.7031,513.8438 Q197.0781,513.8438 197.3125,514.1094 Q197.5469,514.3594 197.5469,514.9688 L197.5469,516.9375 Q197.5469,517.4844 197.4219,517.6719 Q197.1563,518.0625 196.7031,518.0625 Q196.2344,518.0625 195.9688,517.6563 Q195.8438,517.4688 195.8438,516.7969 L194.3594,516.7969 Z "/><text fill="#000000" font-family="sans-serif" font-size="12" lengthAdjust="spacingAndGlyphs" textLength="65" x="209.5" y="520.9102">WineColors</text><line style="stroke: #A80036; stroke-width: 1.5;" x1="181.5" x2="276.5" y1="532" y2="532"/><text fill="#000000" font-family="sans-serif" font-size="11" lengthAdjust="spacingAndGlyphs" textLength="42" x="186.5" y="547.4189">"Rouge",</text><text fill="#000000" font-family="sans-serif" font-size="11" lengthAdjust="spacingAndGlyphs" textLength="36" x="186.5" y="561.2549">"Rosé",</text><text fill="#000000" font-family="sans-serif" font-size="11" lengthAdjust="spacingAndGlyphs" textLength="38" x="186.5" y="575.0908">"Blanc",</text><text fill="#000000" font-family="sans-serif" font-size="11" lengthAdjust="spacingAndGlyphs" textLength="68" x="186.5" y="588.9268">"Champagne",</text><line style="stroke: #A80036; stroke-width: 1.5;" x1="181.5" x2="276.5" y1="595.3438" y2="595.3438"/><path d="M6,73.5 L6,99.8516 A0,0 0 0 0 6,99.8516 L75.7857,99.8516 L172.472,243.967 L83.7857,99.8516 L138,99.8516 A0,0 0 0 0 138,99.8516 L138,83.5 L128,73.5 L6,73.5 A0,0 0 0 0 6,73.5 " fill="#FBFB77" filter="url(#f177cxap4rmjp3)" style="stroke: #A80036; stroke-width: 1.0;"/><path d="M128,73.5 L128,83.5 L138,83.5 L128,73.5 " fill="#FBFB77" style="stroke: #A80036; stroke-width: 1.0;"/><text fill="#000000" font-family="sans-serif" font-size="13" lengthAdjust="spacingAndGlyphs" textLength="111" x="12" y="91.9951">Insert by the admin</text><!--MD5=[eb0e8f8ddfdc21c3fdb48447501fec67]
class Review--><rect codeLine="20" fill="#87CEFA" filter="url(#f177cxap4rmjp3)" height="158.6875" id="Review" style="stroke: #A80036; stroke-width: 1.5;" width="116" x="173" y="7"/><ellipse cx="207.8" cy="23" fill="#ADD1B2" rx="11" ry="11" style="stroke: #A80036; stroke-width: 1.0;"/><path d="M210.5656,18.875 Q210.7219,18.6563 210.9094,18.5469 Q211.0969,18.4375 211.3156,18.4375 Q211.6906,18.4375 211.925,18.7031 Q212.1594,18.9531 212.1594,19.5625 L212.1594,21.0156 Q212.1594,21.625 211.925,21.8906 Q211.6906,22.1563 211.3156,22.1563 Q210.9719,22.1563 210.7688,21.9531 Q210.5656,21.7656 210.4563,21.25 Q210.4094,20.8906 210.2219,20.7031 Q209.8938,20.3281 209.2844,20.1094 Q208.675,19.8906 208.05,19.8906 Q207.2844,19.8906 206.6438,20.2188 Q206.0188,20.5469 205.5188,21.2969 Q205.0344,22.0469 205.0344,23.0781 L205.0344,24.1719 Q205.0344,25.4063 205.925,26.2344 Q206.8156,27.0469 208.4094,27.0469 Q209.3469,27.0469 210.0031,26.7969 Q210.3938,26.6406 210.8156,26.2031 Q211.0813,25.9375 211.2219,25.8594 Q211.3781,25.7813 211.5813,25.7813 Q211.9094,25.7813 212.1594,26.0469 Q212.425,26.2969 212.425,26.6406 Q212.425,26.9844 212.0813,27.3906 Q211.5813,27.9688 210.7844,28.2969 Q209.7063,28.75 208.4094,28.75 Q206.8938,28.75 205.6906,28.125 Q204.7063,27.625 204.0188,26.5625 Q203.3313,25.4844 203.3313,24.2031 L203.3313,23.0469 Q203.3313,21.7188 203.9406,20.5781 Q204.5656,19.4219 205.6594,18.8125 Q206.7531,18.1875 207.9875,18.1875 Q208.7219,18.1875 209.3625,18.3594 Q210.0188,18.5156 210.5656,18.875 Z "/><text fill="#000000" font-family="sans-serif" font-size="12" lengthAdjust="spacingAndGlyphs" textLength="40" x="226.2" y="27.9102">Review</text><line style="stroke: #A80036; stroke-width: 1.5;" x1="174" x2="288" y1="39" y2="39"/><ellipse cx="184" cy="50" fill="none" rx="3" ry="3" style="stroke: #038048; stroke-width: 1.0;"/><text fill="#000000" font-family="sans-serif" font-size="11" lengthAdjust="spacingAndGlyphs" textLength="51" x="193" y="54.4189">id: Number</text><ellipse cx="184" cy="63.8359" fill="none" rx="3" ry="3" style="stroke: #038048; stroke-width: 1.0;"/><text fill="#000000" font-family="sans-serif" font-size="11" lengthAdjust="spacingAndGlyphs" textLength="60" x="193" y="68.2549">name: String</text><ellipse cx="184" cy="77.6719" fill="none" rx="3" ry="3" style="stroke: #038048; stroke-width: 1.0;"/><text fill="#000000" font-family="sans-serif" font-size="11" lengthAdjust="spacingAndGlyphs" textLength="80" x="193" y="82.0908">description: Text</text><ellipse cx="184" cy="91.5078" fill="none" rx="3" ry="3" style="stroke: #038048; stroke-width: 1.0;"/><text fill="#000000" font-family="sans-serif" font-size="11" lengthAdjust="spacingAndGlyphs" textLength="64" x="193" y="95.9268">stars: Integer</text><ellipse cx="184" cy="105.3438" fill="none" rx="3" ry="3" style="stroke: #038048; stroke-width: 1.0;"/><text fill="#000000" font-family="sans-serif" font-size="11" lengthAdjust="spacingAndGlyphs" textLength="89" x="193" y="109.7627">creation: DateTime</text><ellipse cx="184" cy="119.1797" fill="none" rx="3" ry="3" style="stroke: #038048; stroke-width: 1.0;"/><text fill="#000000" font-family="sans-serif" font-size="11" lengthAdjust="spacingAndGlyphs" textLength="90" x="193" y="123.5986">last_edit: DateTime</text><ellipse cx="184" cy="133.0156" fill="none" rx="3" ry="3" style="stroke: #038048; stroke-width: 1.0;"/><text fill="#000000" font-family="sans-serif" font-size="11" lengthAdjust="spacingAndGlyphs" textLength="60" x="193" y="137.4346">author: User</text><ellipse cx="184" cy="146.8516" fill="none" rx="3" ry="3" style="stroke: #038048; stroke-width: 1.0;"/><text fill="#000000" font-family="sans-serif" font-size="11" lengthAdjust="spacingAndGlyphs" textLength="54" x="193" y="151.2705">wine: Wine</text><line style="stroke: #A80036; stroke-width: 1.5;" x1="174" x2="288" y1="157.6875" y2="157.6875"/><!--MD5=[042fa140da40c49659127f611bcff931]
class Comment--><rect codeLine="32" fill="#87CEFA" filter="url(#f177cxap4rmjp3)" height="131.0156" id="Comment" style="stroke: #A80036; stroke-width: 1.5;" width="116" x="326" y="21"/><ellipse cx="354.05" cy="37" fill="#ADD1B2" rx="11" ry="11" style="stroke: #A80036; stroke-width: 1.0;"/><path d="M356.8156,32.875 Q356.9719,32.6563 357.1594,32.5469 Q357.3469,32.4375 357.5656,32.4375 Q357.9406,32.4375 358.175,32.7031 Q358.4094,32.9531 358.4094,33.5625 L358.4094,35.0156 Q358.4094,35.625 358.175,35.8906 Q357.9406,36.1563 357.5656,36.1563 Q357.2219,36.1563 357.0188,35.9531 Q356.8156,35.7656 356.7063,35.25 Q356.6594,34.8906 356.4719,34.7031 Q356.1438,34.3281 355.5344,34.1094 Q354.925,33.8906 354.3,33.8906 Q353.5344,33.8906 352.8938,34.2188 Q352.2688,34.5469 351.7688,35.2969 Q351.2844,36.0469 351.2844,37.0781 L351.2844,38.1719 Q351.2844,39.4063 352.175,40.2344 Q353.0656,41.0469 354.6594,41.0469 Q355.5969,41.0469 356.2531,40.7969 Q356.6438,40.6406 357.0656,40.2031 Q357.3313,39.9375 357.4719,39.8594 Q357.6281,39.7813 357.8313,39.7813 Q358.1594,39.7813 358.4094,40.0469 Q358.675,40.2969 358.675,40.6406 Q358.675,40.9844 358.3313,41.3906 Q357.8313,41.9688 357.0344,42.2969 Q355.9563,42.75 354.6594,42.75 Q353.1438,42.75 351.9406,42.125 Q350.9563,41.625 350.2688,40.5625 Q349.5813,39.4844 349.5813,38.2031 L349.5813,37.0469 Q349.5813,35.7188 350.1906,34.5781 Q350.8156,33.4219 351.9094,32.8125 Q353.0031,32.1875 354.2375,32.1875 Q354.9719,32.1875 355.6125,32.3594 Q356.2688,32.5156 356.8156,32.875 Z "/><text fill="#000000" font-family="sans-serif" font-size="12" lengthAdjust="spacingAndGlyphs" textLength="55" x="370.95" y="41.9102">Comment</text><line style="stroke: #A80036; stroke-width: 1.5;" x1="327" x2="441" y1="53" y2="53"/><ellipse cx="337" cy="64" fill="none" rx="3" ry="3" style="stroke: #038048; stroke-width: 1.0;"/><text fill="#000000" font-family="sans-serif" font-size="11" lengthAdjust="spacingAndGlyphs" textLength="51" x="346" y="68.4189">id: Number</text><ellipse cx="337" cy="77.8359" fill="none" rx="3" ry="3" style="stroke: #038048; stroke-width: 1.0;"/><text fill="#000000" font-family="sans-serif" font-size="11" lengthAdjust="spacingAndGlyphs" textLength="70" x="346" y="82.2549">content: String</text><ellipse cx="337" cy="91.6719" fill="none" rx="3" ry="3" style="stroke: #038048; stroke-width: 1.0;"/><text fill="#000000" font-family="sans-serif" font-size="11" lengthAdjust="spacingAndGlyphs" textLength="89" x="346" y="96.0908">creation: DateTime</text><ellipse cx="337" cy="105.5078" fill="none" rx="3" ry="3" style="stroke: #038048; stroke-width: 1.0;"/><text fill="#000000" font-family="sans-serif" font-size="11" lengthAdjust="spacingAndGlyphs" textLength="90" x="346" y="109.9268">last_edit: DateTime</text><ellipse cx="337" cy="119.3438" fill="none" rx="3" ry="3" style="stroke: #038048; stroke-width: 1.0;"/><text fill="#000000" font-family="sans-serif" font-size="11" lengthAdjust="spacingAndGlyphs" textLength="60" x="346" y="123.7627">author: User</text><ellipse cx="337" cy="133.1797" fill="none" rx="3" ry="3" style="stroke: #038048; stroke-width: 1.0;"/><text fill="#000000" font-family="sans-serif" font-size="11" lengthAdjust="spacingAndGlyphs" textLength="54" x="346" y="137.5986">wine: Wine</text><line style="stroke: #A80036; stroke-width: 1.5;" x1="327" x2="441" y1="144.0156" y2="144.0156"/><!--MD5=[3fd616f346a44cd59a91eb10b19e157c]
class User--><rect codeLine="43" fill="#87CEFA" filter="url(#f177cxap4rmjp3)" height="214.0313" id="User" style="stroke: #A80036; stroke-width: 1.5;" width="135" x="320.5" y="226"/><ellipse cx="370.25" cy="242" fill="#ADD1B2" rx="11" ry="11" style="stroke: #A80036; stroke-width: 1.0;"/><path d="M373.0156,237.875 Q373.1719,237.6563 373.3594,237.5469 Q373.5469,237.4375 373.7656,237.4375 Q374.1406,237.4375 374.375,237.7031 Q374.6094,237.9531 374.6094,238.5625 L374.6094,240.0156 Q374.6094,240.625 374.375,240.8906 Q374.1406,241.1563 373.7656,241.1563 Q373.4219,241.1563 373.2188,240.9531 Q373.0156,240.7656 372.9063,240.25 Q372.8594,239.8906 372.6719,239.7031 Q372.3438,239.3281 371.7344,239.1094 Q371.125,238.8906 370.5,238.8906 Q369.7344,238.8906 369.0938,239.2188 Q368.4688,239.5469 367.9688,240.2969 Q367.4844,241.0469 367.4844,242.0781 L367.4844,243.1719 Q367.4844,244.4063 368.375,245.2344 Q369.2656,246.0469 370.8594,246.0469 Q371.7969,246.0469 372.4531,245.7969 Q372.8438,245.6406 373.2656,245.2031 Q373.5313,244.9375 373.6719,244.8594 Q373.8281,244.7813 374.0313,244.7813 Q374.3594,244.7813 374.6094,245.0469 Q374.875,245.2969 374.875,245.6406 Q374.875,245.9844 374.5313,246.3906 Q374.0313,246.9688 373.2344,247.2969 Q372.1563,247.75 370.8594,247.75 Q369.3438,247.75 368.1406,247.125 Q367.1563,246.625 366.4688,245.5625 Q365.7813,244.4844 365.7813,243.2031 L365.7813,242.0469 Q365.7813,240.7188 366.3906,239.5781 Q367.0156,238.4219 368.1094,237.8125 Q369.2031,237.1875 370.4375,237.1875 Q371.1719,237.1875 371.8125,237.3594 Q372.4688,237.5156 373.0156,237.875 Z "/><text fill="#000000" font-family="sans-serif" font-size="12" lengthAdjust="spacingAndGlyphs" textLength="27" x="390.75" y="246.9102">User</text><line style="stroke: #A80036; stroke-width: 1.5;" x1="321.5" x2="454.5" y1="258" y2="258"/><ellipse cx="331.5" cy="269" fill="none" rx="3" ry="3" style="stroke: #038048; stroke-width: 1.0;"/><text fill="#000000" font-family="sans-serif" font-size="11" lengthAdjust="spacingAndGlyphs" textLength="51" x="340.5" y="273.4189">id: Number</text><ellipse cx="331.5" cy="282.8359" fill="none" rx="3" ry="3" style="stroke: #038048; stroke-width: 1.0;"/><text fill="#000000" font-family="sans-serif" font-size="11" lengthAdjust="spacingAndGlyphs" textLength="82" x="340.5" y="287.2549">username: String</text><ellipse cx="331.5" cy="296.6719" fill="none" rx="3" ry="3" style="stroke: #038048; stroke-width: 1.0;"/><text fill="#000000" font-family="sans-serif" font-size="11" lengthAdjust="spacingAndGlyphs" textLength="85" x="340.5" y="301.0908">first_name: String</text><ellipse cx="331.5" cy="310.5078" fill="none" rx="3" ry="3" style="stroke: #038048; stroke-width: 1.0;"/><text fill="#000000" font-family="sans-serif" font-size="11" lengthAdjust="spacingAndGlyphs" textLength="83" x="340.5" y="314.9268">last_name: String</text><ellipse cx="331.5" cy="324.3438" fill="none" rx="3" ry="3" style="stroke: #038048; stroke-width: 1.0;"/><text fill="#000000" font-family="sans-serif" font-size="11" lengthAdjust="spacingAndGlyphs" textLength="84" x="340.5" y="328.7627">password: String</text><ellipse cx="331.5" cy="338.1797" fill="none" rx="3" ry="3" style="stroke: #038048; stroke-width: 1.0;"/><text fill="#000000" font-family="sans-serif" font-size="11" lengthAdjust="spacingAndGlyphs" textLength="58" x="340.5" y="342.5986">email: String</text><ellipse cx="331.5" cy="352.0156" fill="none" rx="3" ry="3" style="stroke: #038048; stroke-width: 1.0;"/><text fill="#000000" font-family="sans-serif" font-size="11" lengthAdjust="spacingAndGlyphs" textLength="95" x="340.5" y="356.4346">last_login: DateTime</text><ellipse cx="331.5" cy="365.8516" fill="none" rx="3" ry="3" style="stroke: #038048; stroke-width: 1.0;"/><text fill="#000000" font-family="sans-serif" font-size="11" lengthAdjust="spacingAndGlyphs" textLength="105" x="340.5" y="370.2705">date_joined: DateTime</text><ellipse cx="331.5" cy="379.6875" fill="none" rx="3" ry="3" style="stroke: #038048; stroke-width: 1.0;"/><text fill="#000000" font-family="sans-serif" font-size="11" lengthAdjust="spacingAndGlyphs" textLength="109" x="340.5" y="384.1064">is_superuser: Boolean</text><ellipse cx="331.5" cy="393.5234" fill="none" rx="3" ry="3" style="stroke: #038048; stroke-width: 1.0;"/><text fill="#000000" font-family="sans-serif" font-size="11" lengthAdjust="spacingAndGlyphs" textLength="82" x="340.5" y="397.9424">is_staff: Boolean</text><ellipse cx="331.5" cy="407.3594" fill="none" rx="3" ry="3" style="stroke: #038048; stroke-width: 1.0;"/><text fill="#000000" font-family="sans-serif" font-size="11" lengthAdjust="spacingAndGlyphs" textLength="88" x="340.5" y="411.7783">is_active: Boolean</text><ellipse cx="331.5" cy="421.1953" fill="none" rx="3" ry="3" style="stroke: #038048; stroke-width: 1.0;"/><text fill="#000000" font-family="sans-serif" font-size="11" lengthAdjust="spacingAndGlyphs" textLength="67" x="340.5" y="425.6143">picture: Image</text><line style="stroke: #A80036; stroke-width: 1.5;" x1="321.5" x2="454.5" y1="432.0313" y2="432.0313"/><!--MD5=[d16537d804275084a79dbf5fd909c71d]
reverse link Wine to WineColors--><path codeLine="15" d="M229,446.121 C229,464.988 229,483.698 229,499.954 " fill="none" id="Wine-backto-WineColors" style="stroke: #A80036; stroke-width: 1.0;"/><polygon fill="#FFFFFF" points="229,433.063,225,439.063,229,445.063,233,439.063,229,433.063" style="stroke: #A80036; stroke-width: 1.0;"/><!--MD5=[9b042d9e04ba922e1b068d2a25245df5]
reverse link Review to Wine--><path codeLine="30" d="M230.249,179.361 C230.106,196.821 229.956,215.164 229.811,232.839 " fill="none" id="Review-backto-Wine" style="stroke: #A80036; stroke-width: 1.0;"/><polygon fill="#FFFFFF" points="230.356,166.207,226.3067,172.1738,230.2571,178.2066,234.3064,172.2398,230.356,166.207" style="stroke: #A80036; stroke-width: 1.0;"/><!--MD5=[c7e5a9f749a0ab4711560a04f7ad95ef]
reverse link Comment to Wine--><path codeLine="40" d="M335.908,163.361 C319.99,188.47 302.13,216.644 285.632,242.668 " fill="none" id="Comment-backto-Wine" style="stroke: #A80036; stroke-width: 1.0;"/><polygon fill="#FFFFFF" points="343.073,152.059,336.4823,154.9851,336.6484,162.1943,343.2392,159.2682,343.073,152.059" style="stroke: #A80036; stroke-width: 1.0;"/><!--MD5=[ccaede06ee77bfde95f2854fcaa72abb]
reverse link Comment to User--><path codeLine="41" d="M385.27,165.125 C385.586,184.437 385.93,205.47 386.264,225.892 " fill="none" id="Comment-backto-User" style="stroke: #A80036; stroke-width: 1.0;"/><polygon fill="#FFFFFF" points="385.056,152.059,381.1548,158.1237,385.2525,164.0574,389.1537,157.9927,385.056,152.059" style="stroke: #A80036; stroke-width: 1.0;"/><!--MD5=[da976b25fbd1bd4a8953af94132e8acd]
@startuml Overview

class Wine #LightSkyBlue {
    + id: Number
    + name: String
    + description: Text
    + color: WineColors
    + vintage: Short
    + wineMaker: String
    + country: String
    + region: String
    + appellation: String
    + price: Double
    + label: Image
}
Wine o- - WineColors
note top of Wine
Insert by the admin
end note

class Review #LightSkyBlue {
    + id: Number
    + name: String
    + description: Text
    + stars: Integer
    + creation: DateTime
    + last_edit: DateTime
    + author: User
    + wine: Wine
}
Review o- - Wine

class Comment #LightSkyBlue {
    + id: Number
    + content: String
    + creation: DateTime
    + last_edit: DateTime
    + author: User
    + wine: Wine
}
Comment o- - Wine
Comment o- - User

class User #LightSkyBlue {
    + id: Number
    + username: String
    + first_name: String
    + last_name: String
    + password: String
    + email: String
    + last_login: DateTime
    + date_joined: DateTime
    + is_superuser: Boolean
    + is_staff: Boolean
    + is_active: Boolean
    + picture: Image
}

Enum WineColors {
    "Rouge",
    "Rosé",
    "Blanc",
    "Champagne",
}

@enduml

PlantUML version 1.2020.18(Wed Sep 30 21:40:44 CEST 2020)
(GPL source distribution)
Java Runtime: Java(TM) SE Runtime Environment
JVM: Java HotSpot(TM) 64-Bit Server VM
Default Encoding: Cp1252
Language: en
Country: GB
--></g></svg>